<?xml version="1.0" encoding="utf-8"?>
<!-- Generator: Adobe Illustrator 16.0.0, SVG Export Plug-In . SVG Version: 6.00 Build 0)  -->
<!DOCTYPE svg PUBLIC "-//W3C//DTD SVG 1.1//EN" "http://www.w3.org/Graphics/SVG/1.1/DTD/svg11.dtd">
<svg version="1.1" id="Layer_1" xmlns="http://www.w3.org/2000/svg" xmlns:xlink="http://www.w3.org/1999/xlink" x="0px" y="0px"
	 width="505.517px" height="579.173px" viewBox="0 0 505.517 579.173" enable-background="new 0 0 505.517 579.173"
	 xml:space="preserve">
<g>
	<path fill-rule="evenodd" clip-rule="evenodd" d="M294.728,218.414c0-7.938,0.177-15.885-0.144-23.811
		c-0.066-1.649-1.732-3.459-3.061-4.799c-13.492-13.608-27.143-27.06-40.524-40.775c-1.73-1.772-2.897-4.73-3.093-7.236
		c-0.452-5.798,0.032-11.663-0.232-17.484c-0.122-2.7-1.492-5.35-1.573-8.043c-0.065-2.202,0.286-5.166,1.684-6.424
		c1.118-1.006,4.998-0.754,6.003,0.389c1.233,1.402,1.127,4.349,0.918,6.564c-0.296,3.147-1.273,6.226-1.854,9.353
		c-2.357,12.685,2.534,21.912,12.291,30.165c10.122,8.562,18.905,18.706,28.857,27.885c0.433-5.433,2.25-10.546-3.019-15.228
		c-7.959-7.07-15.352-14.807-22.639-22.584c-1.804-1.926-3.169-5.081-3.217-7.699c-0.292-15.994-0.045-31.997-0.232-47.993
		c-0.037-3.166-1.564-6.306-1.676-9.483c-0.077-2.198,0.518-4.995,1.922-6.463c0.907-0.948,4.771-0.738,5.608,0.312
		c1.242,1.555,1.344,4.331,1.246,6.557c-0.097,2.195-1.525,4.349-1.543,6.528c-0.14,16.498-0.178,32.999,0.044,49.495
		c0.03,2.174,1.207,4.803,2.717,6.407c6.674,7.085,13.664,13.872,21.543,21.772c0-12.428,0-23.354,0-34.279
		c0-3.5-0.073-7.001,0.018-10.499c0.125-4.805,0.117-8.776-5.105-12.071c-6.524-4.115-6.17-13.706-0.487-19.243
		c5.283-5.148,14.49-4.727,19.165,0.877c5.104,6.117,4.451,15.125-2.119,19.279c-3.455,2.185-3.908,4.603-3.901,8.084
		c0.067,32.831,0.02,65.662,0.019,98.493c0,1.455,0.137,2.91,0.211,4.364c0.439,0.335,0.879,0.67,1.318,1.005
		c4.935-5.304,9.988-10.505,14.709-15.993c1.01-1.174,1.114-3.388,1.121-5.125c0.074-18.998,0.107-37.998-0.012-56.996
		c-0.02-3.199,0.676-5.61,3.137-7.866c4.786-4.386,9.419-8.974,13.752-13.803c1.951-2.174,2.783-5.32,4.59-7.665
		c1.261-1.635,3.232-3.507,5.044-3.687c1.486-0.148,4.278,1.835,4.552,3.249c0.348,1.807-0.7,4.586-2.117,5.897
		c-4.164,3.854-8.686,7.361-13.291,10.693c-8.898,6.437-11.541,14.827-10.866,25.749c0.964,15.606,0.351,31.317,0.126,46.98
		c-0.032,2.183-1.186,4.806-2.684,6.428c-5.196,5.624-10.514,11.197-16.293,16.202c-4.211,3.647-3.019,8.015-3.378,13.252
		c1.509-1.127,2.556-1.73,3.382-2.553c7.679-7.64,15.444-15.199,22.871-23.079c1.6-1.697,2.703-4.579,2.73-6.93
		c0.227-19.163,0.018-38.331,0.299-57.492c0.038-2.62,1.404-5.831,3.238-7.716c13.128-13.497,26.583-26.675,39.795-40.091
		c1.612-1.637,2.121-4.326,3.645-6.094c1.454-1.689,3.649-3.981,5.365-3.858c1.765,0.126,4.555,2.772,4.666,4.463
		c0.114,1.731-2.248,3.896-3.944,5.4c-1.636,1.449-4.151,1.945-5.688,3.46c-13.162,12.988-26.256,26.049-39.172,39.281
		c-1.521,1.558-2.588,4.274-2.61,6.466c-0.201,19.33-0.009,38.664-0.25,57.993c-0.031,2.479-1.273,5.516-2.986,7.307
		c-9.214,9.629-18.867,18.838-28.08,28.467c-1.72,1.796-2.969,4.832-3.01,7.318c-0.281,17.161-0.291,34.33-0.125,51.492
		c0.036,3.642-1.008,6.242-3.578,8.762c-13.07,12.82-26.003,25.782-39.342,39.05c2.433,1.732,4.551,3.239,7.119,5.067
		c0.311-0.295,1.626-1.493,2.883-2.75c27.576-27.571,55.18-55.114,82.625-82.813c1.619-1.634,2.752-4.535,2.766-6.854
		c0.182-30.33,0.044-60.663,0.26-90.992c0.019-2.621,1.38-5.757,3.145-7.739c4.979-5.59,10.535-10.662,15.777-16.023
		c2.539-2.596,5.894-4.559,5.579-9.249c-0.08-1.185,3.184-3.646,4.86-3.602c1.695,0.045,4.173,2.2,4.728,3.936
		c0.466,1.459-0.854,4.193-2.229,5.407c-4.918,4.345-10.195,8.284-15.786,12.733c3.1,2.681,5.522,4.777,8.355,7.226
		c6.448-6.516,13.402-13.425,20.171-20.51c1.011-1.058,0.79-3.275,1.785-4.366c1.504-1.648,3.565-3.796,5.409-3.815
		c1.567-0.016,4.402,2.654,4.431,4.177c0.035,1.892-1.979,4.097-3.593,5.667c-1.562,1.517-4.046,2.088-5.597,3.611
		c-7.704,7.567-15.233,15.311-23.412,23.586c-3.442-4.146-6.504-7.833-9.593-11.553c-6.052,4.278-9.092,8.086-8.99,14.979
		c0.432,28.992,0.115,57.994,0.262,86.991c0.02,3.952-1.024,6.79-3.885,9.631c-29.44,29.241-58.736,58.627-88.079,87.968
		c-0.816,0.815-1.695,1.568-2.877,2.656c-2.76-3.396-5.45-6.704-8.077-9.935c-4.876,4.906-8.55,8.604-12.411,12.49
		c-0.091-0.339-0.102-0.101,0.003-0.028c7.667,5.295,8.056,12.932,8.014,21.434c-0.276,55.328-0.142,110.658-0.142,165.988
		c0,1.79,0,3.58,0,5.617c-5.093,0-9.702,0-15.089,0c0-2.004,0-3.921,0-5.837c-0.001-55.83-0.03-111.66,0.065-167.489
		c0.006-3.573-0.926-6.105-3.538-8.689c-21.798-21.563-43.425-43.3-65.111-64.978c-0.462-0.463-1.004-0.845-1.085-0.911
		c-0.21,3.825-0.661,7.872-0.534,11.9c0.047,1.497,1.147,3.25,2.273,4.383c18.909,19.025,37.865,38.004,56.912,56.893
		c2.399,2.38,3.594,4.736,3.587,8.238c-0.109,53.33-0.076,106.659-0.076,159.989c0,2.106,0,4.213,0,6.514c-2.868,0-4.981,0-7.618,0
		c0-1.905,0-3.695,0-5.486c0-52.163-0.04-104.326,0.079-156.489c0.009-3.984-1.146-6.801-3.989-9.596
		c-13.292-13.065-26.371-26.347-40.095-40.122c-3.98,4.718-7.722,9.153-12.01,14.234c-7.561-8.128-14.064-15.119-21.082-22.663
		c-4.108,4.722-7.263,8.35-10.925,12.56c-8.031-8.17-15.326-15.627-22.662-23.043c-4.804-4.856-9.587-9.739-14.552-14.428
		c-1.602-1.513-4.016-2.176-5.582-3.713c-1.6-1.57-3.819-3.925-3.558-5.59c0.277-1.765,2.996-4.117,4.93-4.422
		c2.814-0.441,4.786,1.707,5.086,4.928c0.112,1.203,0.479,2.672,1.276,3.479c11.347,11.481,22.787,22.869,34.731,34.807
		c2.14-2.631,4.093-5.032,6.386-7.852c-4.295-2.976-6.423-9.561-13.671-10.162c-1.146-0.095-2.998-3.068-2.839-4.528
		c0.19-1.75,1.902-4.181,3.481-4.693c1.552-0.504,4.943,0.499,5.503,1.748c4.903,10.938,15.419,16.74,22.709,25.445
		c2.863,3.419,6.137,6.494,9.168,9.666c3.366-3.399,6.262-6.325,9.747-9.845c-4.074-3.951-8.413-8.264-12.908-12.405
		c-0.657-0.604-2.135-0.724-3.111-0.511c-6.493,1.414-11.491-0.753-15.028-6.215c-2.838-4.384-2.411-10.239,0.78-14.547
		c3.514-4.742,8.928-6.333,15.627-4.58c0.456,0.119,0.89,0.316,2.845,1.025c-3.925-4.016-6.628-7.23-9.796-9.891
		c-2.887-2.424-4.018-5.228-3.39-8.746c1.464-8.207-2.788-13.385-7.799-19.5c-9.781-11.938-21.152-17.313-36.297-14.615
		c-8.072,1.438-14.215-1.576-18.901-8.035c-6.268-8.639-14.397-12.448-25.254-10.797c-2.379,0.362-5.631-1.418-7.67-3.16
		c-4.548-3.884-8.434-8.535-12.894-12.534c-2.223-1.994-5.302-3.01-7.637-4.907c-1.511-1.227-3.464-3.403-3.254-4.874
		c0.258-1.817,2.294-4.189,4.052-4.731c1.429-0.441,4.97,1.209,5.181,2.368c1.144,6.276,6.492,9.027,10.083,13.211
		c1.407,1.639,3.344,2.88,4.521,4.648c4.02,6.036,9.758,5.733,15.712,4.945c0.338-0.454,0.676-0.908,1.014-1.362
		c-5.794-4.607-11.696-9.088-17.313-13.902c-1.551-1.329-3.309-3.816-3.048-5.469c0.267-1.693,2.907-4.208,4.481-4.189
		c1.861,0.023,4.026,2.096,5.452,3.792c1.702,2.023,2.352,4.986,4.167,6.853c9.868,10.153,19.853,20.201,30.063,30.009
		c1.796,1.726,4.794,2.853,7.325,3.032c6.101,0.433,12.253,0.14,19.889,0.14c-3.968-4.044-6.99-7.14-10.03-10.217
		c-2.108-2.134-4.479-4.056-6.315-6.399c-4.098-5.232-8.431-7.203-15.608-5.498c-10.226,2.43-21.621-7.064-23.782-18.179
		c-2.194-11.282,5.074-23.208,15.931-26.095c8.595-2.285,16.243-0.426,22.52,5.84c6.32,6.309,7.729,13.997,5.658,22.588
		c-0.379,1.573-0.065,4.059,0.964,5.111c12.234,12.505,24.662,24.82,37.057,37.167c0.316,0.315,0.835,0.427,2.389-0.036
		c-1.122-2.112-1.726-4.916-3.457-6.218c-7.398-5.563-9.626-12.616-8.896-21.703c0.786-9.771,0.401-19.658,0.079-29.479
		c-0.083-2.512-1.241-5.566-2.963-7.351c-10.875-11.271-22.015-22.287-33.167-33.286c-1.197-1.181-3.23-1.485-4.527-2.601
		c-1.712-1.473-4.112-3.253-4.276-5.076c-0.137-1.527,2.388-4.5,3.956-4.661c1.856-0.19,4.414,1.545,5.841,3.171
		c2.514,2.866,3.989,6.68,6.622,9.397c10.083,10.408,20.546,20.448,30.618,30.865c1.623,1.679,2.738,4.564,2.794,6.922
		c0.296,12.493,0.425,25.001,0.084,37.491c-0.138,5.069,2.221,7.859,6.604,10.841c0-1.933,0-3.188,0-4.444
		c0.002-20.999-0.188-42,0.147-62.994c0.079-4.966-3.303-6.875-5.816-9.762c-2.629-3.022-5.079-5.081-9.98-4.033
		c-10.422,2.229-20.199-3.12-24.369-12.157c-4.383-9.499-2.02-20.589,5.808-27.253c7.542-6.419,18.896-7.194,26.989-1.841
		c8.722,5.77,12.494,16.153,9.135,26.222c-0.929,2.784-0.888,4.794,1.522,6.454c10.24,7.05,12.212,16.806,11.934,28.831
		c-0.785,33.813-0.344,67.657-0.136,101.486c0.016,2.616,1.343,5.831,3.152,7.727c9.545,10.004,19.436,19.678,29.219,29.454
		c1.16,1.159,2.391,2.246,4.138,3.882c10.338-10.513,20.502-20.807,30.58-31.183c0.717-0.739,1.125-2.086,1.135-3.155
		c0.089-8.963,0.05-17.927,0.05-27.275c-8.063,0-15.677,0-24.047,0c0-5.974-0.246-11.594,0.089-17.179
		c0.212-3.532-1.007-5.96-3.453-8.302c-5.535-5.299-10.772-10.913-16.365-16.148c-2.635-2.466-3.734-5.016-3.703-8.685
		c0.174-20.664,0.123-41.33,0.012-61.995c-0.011-2.019-1.328-4.025-1.361-6.049c-0.04-2.39-0.033-5.353,1.29-6.982
		c0.822-1.013,5.274-0.824,6.042,0.269c1.184,1.684,0.866,4.626,0.688,6.998c-0.14,1.853-1.513,3.646-1.522,5.47
		c-0.113,20.331-0.148,40.664,0.05,60.995c0.021,2.188,1.166,4.781,2.623,6.464c4.455,5.144,9.316,9.936,14.02,14.864
		c0.445-0.174,0.891-0.348,1.336-0.522c0.109-1.502,0.312-3.003,0.313-4.505c0.008-10.665,0.151-21.335-0.145-31.993
		c-0.096-3.457-1.687-6.853-1.993-10.329c-0.183-2.084,0.124-5.09,1.447-6.179c1.308-1.076,5.036-1.136,6.129-0.053
		c1.326,1.313,1.413,4.315,1.285,6.543c-0.146,2.522-1.645,4.992-1.662,7.49c-0.142,21.317-0.082,42.635-0.082,64.633
		c8.059,0,15.936,0,24.337,0c0,12.123,0.089,23.576-0.119,35.023c-0.025,1.361-1.491,2.877-2.607,4.007
		c-9.362,9.487-18.803,18.898-28.208,28.343c-0.918,0.923-1.759,1.923-2.494,2.73c2.305,2.518,4.411,4.819,6.911,7.55
		c11.075-11.168,21.876-21.99,32.54-32.947c0.866-0.89,1.092-2.7,1.098-4.085c0.073-16.666-0.031-33.332,0.126-49.996
		c0.026-2.813-1.058-4.039-3.365-5.275c-10.241-5.491-14.66-16.279-11.298-27.008c3.142-10.026,12.961-16.562,23.456-15.61
		c11.282,1.022,19.884,9.177,20.834,20.611c0.746,8.967-2.821,16.456-10.664,21.087c-3.265,1.928-4.056,3.97-4.025,7.46
		c0.16,18.164,0.175,36.332-0.058,54.495c-0.029,2.318-1.24,5.158-2.858,6.832c-10.42,10.782-21.109,21.304-31.7,31.92
		c-1.039,1.042-2.012,2.15-2.654,2.84c5.138,5.38,10.053,10.524,15.474,16.2c9.546-9.691,18.971-19.308,28.452-28.87
		c7.979-8.046,16.146-15.909,23.938-24.131c1.724-1.82,3.104-4.802,3.129-7.264c0.234-22.997,0.235-45.997-0.004-68.993
		c-0.025-2.453-1.433-5.463-3.187-7.241c-20.946-21.231-42.037-42.319-63.215-63.319c-2.675-2.653-4.413-5.269-3.827-9.119
		c0.873-5.739-1.303-9.984-5.675-13.854c-6.102-5.4-11.721-11.366-17.305-17.316c-1.301-1.386-2.264-3.674-2.3-5.568
		c-0.212-11.162,0.035-22.333-0.21-33.493c-0.056-2.57-1.739-5.068-2.104-7.679c-0.292-2.085-0.477-4.998,0.685-6.244
		c1.131-1.214,4.593-1.684,6.002-0.813c1.453,0.897,2.359,3.833,2.277,5.826c-0.179,4.361-1.549,8.678-1.688,13.036
		c-0.287,8.99-0.146,17.997-0.03,26.995c0.02,1.536,0.331,3.486,1.289,4.523c5.745,6.224,11.719,12.236,17.616,18.319
		c0.481-0.151,0.963-0.302,1.444-0.453c0-2.324-0.002-4.648,0-6.972c0.005-6.833,0.182-13.671-0.073-20.494
		c-0.092-2.479-1.583-4.895-1.757-7.387c-0.158-2.246-0.049-5.079,1.2-6.658c0.855-1.081,4.745-1.34,5.71-0.384
		c1.436,1.421,2.042,4.255,1.989,6.463c-0.073,3-1.573,5.965-1.64,8.964c-0.319,14.319-0.404,28.645-0.436,42.969
		c-0.003,1.526,0.427,3.505,1.425,4.514c20.83,21.063,41.771,42.018,62.691,62.993C293.906,218.747,294.317,218.58,294.728,218.414z
		 M252.921,228.989c3.912,0.005,7.241-3.256,7.353-7.205c0.118-4.167-3.273-7.496-7.53-7.391c-4.144,0.103-7.044,3.145-6.991,7.331
		C245.804,225.79,248.955,228.983,252.921,228.989z M130.374,145.618c3.863-0.013,7.361-3.408,7.421-7.202
		c0.059-3.77-3.403-7.321-7.222-7.407c-4.09-0.092-7.737,3.456-7.675,7.467C122.956,142.212,126.534,145.631,130.374,145.618z
		 M88.17,211.636c4.24,0.096,7.762-3.24,7.687-7.283c-0.07-3.788-3.585-7.188-7.429-7.188c-3.876,0-7.325,3.336-7.432,7.187
		C80.89,208.205,84.18,211.545,88.17,211.636z M299.881,104.604c2.187-0.058,4.352-2.396,3.707-5.281
		c-0.476-2.126-3.336-5.117-5.174-5.146c-1.822-0.029-4.854,2.931-5.279,5.006C292.473,102.41,294.894,104.616,299.881,104.604z
		 M153.983,324.363c0.771,0.021,1.542,0.043,2.313,0.064c1.516-1.99,3.949-3.818,4.336-6.008c0.596-3.379-1.936-5.637-5.37-5.683
		c-3.272-0.044-5.606,2.264-5.191,5.335C150.374,320.305,152.609,322.275,153.983,324.363z"/>
	<path fill-rule="evenodd" clip-rule="evenodd" d="M366.142,334.521c-6.612-6.289-13.224-12.577-20.554-19.549
		c8.805-8.588,17.305-16.749,25.661-25.053c16.778-16.672,33.536-33.366,50.122-50.228c1.643-1.669,2.712-4.51,2.888-6.894
		c0.417-5.634,0.521-11.353,0.033-16.976c-0.547-6.307,1.191-11.015,6.093-15.283c4.322-3.764,9.559-7.162,10.497-13.877
		c0.147-1.056,3.577-2.556,5.181-2.248c1.574,0.302,3.668,2.54,3.855,4.126c0.191,1.625-1.275,3.906-2.673,5.178
		c-5.437,4.947-11.21,9.525-16.661,14.458c-0.894,0.809-1.079,2.708-1.105,4.113c-0.136,6.995-0.361,14.005-0.047,20.986
		c0.199,4.416-1.449,7.388-4.505,10.416c-23.313,23.097-46.467,46.355-69.665,69.568c-0.465,0.466-0.869,0.99-2.119,2.423
		c1.525,0.901,3.037,1.795,4.957,2.929c3.82-5.254,11.146-8.021,12.614-15.986c0.242-1.313,3.611-2.78,5.546-2.794
		c1.303-0.009,3.641,2.372,3.691,3.752c0.069,1.911-1.082,4.464-2.571,5.728c-5.204,4.413-10.778,8.389-16.507,12.756
		c3.602,3.571,6.284,6.231,10.115,10.03c1.263-1.796,2.268-3.744,3.738-5.233c9.95-10.073,20.078-19.974,29.92-30.152
		c1.294-1.338,2.071-4.082,1.738-5.931c-1.431-7.944,3.205-15.33,10.708-16.297c8.334-1.075,14.994,4.186,15.611,12.328
		c0.587,7.754-6.048,14.841-14.179,13.515c-5.169-0.844-7.562,1.407-10.484,4.346c-13.156,13.23-26.293,26.482-39.655,39.502
		c-1.774,1.729-4.776,2.985-7.255,3.064c-10.485,0.334-20.992-0.01-31.482,0.262c-2.204,0.057-4.854,1.142-6.467,2.646
		c-7.051,6.575-13.796,13.479-21.053,20.66c2.594,2.365,4.846,4.419,7.471,6.813c5.647-5.739,11.209-11.694,17.152-17.241
		c1.714-1.6,4.514-2.827,6.834-2.858c17.491-0.234,34.988-0.008,52.479-0.264c2.471-0.036,5.402-1.357,7.279-3.029
		c5.216-4.646,10.087-9.697,14.883-14.788c1.611-1.711,2.306-4.293,3.934-5.979c1.563-1.618,3.962-3.768,5.679-3.519
		c1.707,0.248,4.134,3.164,4.178,4.961c0.04,1.605-2.59,3.466-4.323,4.866c-1.457,1.178-3.622,1.538-4.95,2.808
		c-5.899,5.64-11.483,11.614-17.476,17.149c-1.618,1.494-4.26,2.615-6.446,2.642c-17.492,0.211-34.99-0.002-52.48,0.253
		c-2.472,0.036-5.447,1.317-7.279,3.008c-6.717,6.198-13.051,12.812-20.404,20.143c-3.068-3.93-6.021-7.712-9.568-12.257
		c-5.559,5.787-10.184,10.278-14.35,15.161c-1.074,1.258-0.964,3.744-0.965,5.667c-0.049,52.816-0.041,105.633-0.043,158.449
		c0,2.151,0,4.302,0,6.819c-2.594,0-4.849,0-7.853,0c0-1.469,0-3.056,0-4.643c0-54.815-0.038-109.631,0.125-164.445
		c0.007-2.467,1.214-5.538,2.924-7.294c13.48-13.839,27.158-27.487,40.963-41.004c1.543-1.511,4.234-2.527,6.424-2.584
		c10.324-0.267,20.664,0.07,30.984-0.241c2.924-0.088,5.806-1.636,8.706-2.514C366.052,336.096,366.097,335.309,366.142,334.521z
		 M425.663,288.567c-0.021-0.73-0.04-1.46-0.061-2.191c-2.071-1.428-4.266-4.12-6.182-3.935c-1.992,0.192-4.861,2.922-5.297,4.977
		c-0.701,3.311,2.045,5.866,5.393,5.318C421.733,292.373,423.625,290.026,425.663,288.567z"/>
	<path fill-rule="evenodd" clip-rule="evenodd" d="M375.484,238.485c7.559-7.586,14.906-14.962,23.02-23.105
		c-3.251-2.636-6.944-5.63-11.3-9.163c7.57-7.364,14.072-13.541,20.362-19.926c1.379-1.4,1.754-3.75,3.036-5.294
		c1.419-1.709,3.355-4.148,5.055-4.139c1.717,0.009,4.6,2.488,4.797,4.144c0.199,1.672-2.099,3.826-3.638,5.451
		c-0.946,0.998-2.76,1.147-3.775,2.109c-5.798,5.496-11.474,11.122-17.703,17.204c4.007,3.409,7.627,6.489,12.146,10.334
		c-8.993,8.708-16.709,16.732-25.044,24.053c-5.457,4.793-8.352,10.018-7.109,17.268c2.157,12.589-2.854,21.446-12.098,30.298
		c-29.591,28.339-58.124,57.782-87.206,86.657c-3.306,3.282-4.827,6.48-4.812,11.27c0.181,55.493,0.115,110.987,0.115,166.48
		c0,2.313,0,4.626,0,7.374c-2.574,0-4.768,0-7.58,0c0-1.669,0-3.284,0-4.9c0.006-58.16-0.025-116.32,0.146-174.48
		c0.007-2.455,1.268-5.524,2.996-7.265c32.167-32.398,64.461-64.668,96.835-96.859c2.925-2.909,4.169-5.816,4.128-10.012
		c-0.221-22.329,0.005-44.662-0.203-66.991c-0.038-4.032,1.202-6.778,4.014-9.548c14.956-14.736,29.702-29.686,44.608-44.473
		c2.135-2.117,3.243-3.956,2.562-7.251c-1.278-6.177,1.641-11.597,6.817-14.192c5.159-2.586,11.839-1.47,15.662,2.616
		c3.95,4.222,4.76,10.714,1.967,15.763c-2.789,5.042-8.521,7.908-14.435,6.344c-2.923-0.773-4.56-0.159-6.495,1.792
		c-14.667,14.789-29.426,29.489-44.104,44.266c-1.119,1.126-2.623,2.625-2.644,3.969
		C375.407,211.687,375.484,225.101,375.484,238.485z M437.82,136.567c0-0.806-0.001-1.612-0.001-2.418
		c-2.014-1.422-4.204-4.163-5.993-3.922c-2.094,0.282-5.082,2.942-5.44,4.967c-0.531,3.001,1.801,5.996,5.406,5.314
		C433.971,140.095,435.822,137.939,437.82,136.567z"/>
	<path fill-rule="evenodd" clip-rule="evenodd" fill="#FFFFFF" d="M252.921,228.989c-3.967-0.005-7.117-3.199-7.168-7.265
		c-0.053-4.186,2.848-7.228,6.991-7.331c4.257-0.105,7.648,3.224,7.53,7.391C260.163,225.732,256.833,228.994,252.921,228.989z"/>
	<path fill-rule="evenodd" clip-rule="evenodd" fill="#FFFFFF" d="M130.374,145.618c-3.84,0.013-7.418-3.406-7.476-7.143
		c-0.062-4.011,3.585-7.559,7.675-7.467c3.819,0.086,7.281,3.637,7.222,7.407C137.735,142.21,134.237,145.605,130.374,145.618z"/>
	<path fill-rule="evenodd" clip-rule="evenodd" fill="#FFFFFF" d="M88.17,211.636c-3.99-0.091-7.28-3.432-7.173-7.284
		c0.106-3.851,3.556-7.187,7.432-7.187c3.844-0.001,7.359,3.4,7.429,7.188C95.932,208.396,92.41,211.732,88.17,211.636z"/>
	<path fill-rule="evenodd" clip-rule="evenodd" fill="#FFFFFF" d="M299.881,104.604c-4.987,0.012-7.408-2.194-6.746-5.421
		c0.425-2.075,3.457-5.035,5.279-5.006c1.838,0.029,4.698,3.02,5.174,5.146C304.233,102.208,302.068,104.546,299.881,104.604z"/>
	<path fill-rule="evenodd" clip-rule="evenodd" fill="#FFFFFF" d="M153.983,324.363c-1.374-2.088-3.61-4.059-3.912-6.291
		c-0.416-3.071,1.918-5.379,5.191-5.335c3.434,0.046,5.966,2.304,5.37,5.683c-0.387,2.189-2.82,4.018-4.336,6.008
		C155.525,324.406,154.754,324.385,153.983,324.363z"/>
	<path fill-rule="evenodd" clip-rule="evenodd" fill="#FFFFFF" d="M425.663,288.567c-2.038,1.459-3.93,3.806-6.146,4.169
		c-3.348,0.548-6.094-2.007-5.393-5.318c0.436-2.055,3.305-4.784,5.297-4.977c1.916-0.185,4.11,2.507,6.182,3.935
		C425.623,287.106,425.642,287.836,425.663,288.567z"/>
	<path fill-rule="evenodd" clip-rule="evenodd" fill="#FFFFFF" d="M437.82,136.567c-1.998,1.372-3.849,3.528-6.028,3.94
		c-3.605,0.682-5.938-2.313-5.406-5.314c0.358-2.025,3.347-4.685,5.44-4.967c1.789-0.241,3.979,2.5,5.993,3.922
		C437.819,134.956,437.82,135.761,437.82,136.567z"/>
</g>
<g>
</g>
<g>
</g>
<g>
</g>
<g>
</g>
<g>
</g>
<g>
</g>
</svg>
